<svg viewBox="0 0 86 76" xmlns="http://www.w3.org/2000/svg">
  <path d="M1.005 0a1 1 0 1 0 0 2h11.188l10.75 50.719c-.184.627.411 1.345 1.062 1.281h50c.529.01 1.014-.472 1.014-1s-.485-1.007-1.014-1H24.818l-2.125-10h55.312c.448 0 .871-.344.97-.781l7-30c.13-.58-.375-1.215-.97-1.219H15.911L13.974.781A1.031 1.031 0 0 0 13.005 0h-12zM16.35 12h67.406l-6.53 28h-54.97L16.35 12zm17.656 48c-4.406 0-8 3.594-8 8 0 4.406 3.594 8 8 8 4.407 0 8-3.594 8-8 0-4.406-3.593-8-8-8zm30 0c-4.406 0-8 3.594-8 8 0 4.406 3.594 8 8 8 4.407 0 8-3.594 8-8 0-4.406-3.593-8-8-8zm-30 2c3.326 0 6 2.674 6 6s-2.674 6-6 6c-3.325 0-6-2.674-6-6s2.675-6 6-6zm30 0c3.326 0 6 2.674 6 6s-2.674 6-6 6c-3.325 0-6-2.674-6-6s2.675-6 6-6z" fill="#000" fillRule="nonzero" />
</svg>
